<svg xmlns="http://www.w3.org/2000/svg" width="223.768" height="49" viewBox="0 0 223.768 49">
  <g id="Groupe_8" data-name="Groupe 8" transform="translate(158 723)">
    <path id="Tracé_269" data-name="Tracé 269" d="M12.072-3.264V0H1.248V-16.8H5.016L4.992-3.264ZM19.1.216a5.967,5.967,0,0,1-3.4-.924,5.56,5.56,0,0,1-2.04-2.424,7.925,7.925,0,0,1-.66-3.228,7.925,7.925,0,0,1,.66-3.228,5.636,5.636,0,0,1,2.04-2.436,6,6,0,0,1,3.444-.936,5.571,5.571,0,0,1,4.272,1.692A6.924,6.924,0,0,1,25.008-6.36v1.032h-8.4v.192a2.35,2.35,0,0,0,.684,1.692,2.315,2.315,0,0,0,1.74.708,2.511,2.511,0,0,0,1.392-.372,2.028,2.028,0,0,0,.816-1h3.672A5.684,5.684,0,0,1,22.932-1,5.9,5.9,0,0,1,19.1.216Zm2.328-7.944a2.657,2.657,0,0,0-.66-1.92,2.312,2.312,0,0,0-1.692-.624,2.25,2.25,0,0,0-1.716.672,2.7,2.7,0,0,0-.66,1.872ZM38.88.216A3.722,3.722,0,0,1,36.432-.5,4.859,4.859,0,0,1,35.16-2.04h-.192V0H31.2V-18.024h3.768v7.2h.192a4.2,4.2,0,0,1,1.212-1.428,3.859,3.859,0,0,1,2.484-.708,4.246,4.246,0,0,1,3.66,1.776A8.081,8.081,0,0,1,43.8-6.36a8.047,8.047,0,0,1-1.284,4.788A4.212,4.212,0,0,1,38.88.216ZM37.488-2.736A2.042,2.042,0,0,0,39.4-3.816a5.075,5.075,0,0,0,.612-2.544A4.876,4.876,0,0,0,39.4-8.868a2.056,2.056,0,0,0-1.908-1.044A2.051,2.051,0,0,0,35.58-8.856a4.892,4.892,0,0,0-.612,2.5,5,5,0,0,0,.624,2.544A2.048,2.048,0,0,0,37.488-2.736ZM50.952.216a6.149,6.149,0,0,1-3.4-.888A5.426,5.426,0,0,1,45.5-3.048a7.956,7.956,0,0,1-.672-3.312,7.98,7.98,0,0,1,.672-3.3,5.488,5.488,0,0,1,2.052-2.4,6.087,6.087,0,0,1,3.4-.9,6.149,6.149,0,0,1,3.4.888A5.413,5.413,0,0,1,56.4-9.684a7.98,7.98,0,0,1,.672,3.3,7.98,7.98,0,0,1-.672,3.3,5.488,5.488,0,0,1-2.052,2.4A6.087,6.087,0,0,1,50.952.216Zm0-3A1.992,1.992,0,0,0,52.8-3.816a5.093,5.093,0,0,0,.6-2.592,4.894,4.894,0,0,0-.6-2.556,2.008,2.008,0,0,0-1.848-1A2,2,0,0,0,49.1-8.952a4.908,4.908,0,0,0-.6,2.544,5.013,5.013,0,0,0,.612,2.592A2,2,0,0,0,50.952-2.784ZM58.488-12.7h3.744v1.848h.192a3.6,3.6,0,0,1,1.332-1.5A3.973,3.973,0,0,1,66-12.96a3.716,3.716,0,0,1,3.456,1.572,6.612,6.612,0,0,1,.96,3.516V0H66.672V-7.224a3.16,3.16,0,0,0-.552-1.968,1.929,1.929,0,0,0-1.632-.72,1.97,1.97,0,0,0-1.7.756,3.193,3.193,0,0,0-.552,1.932V0H58.488ZM82.656.216a5.967,5.967,0,0,1-3.4-.924,5.56,5.56,0,0,1-2.04-2.424,7.925,7.925,0,0,1-.66-3.228,7.925,7.925,0,0,1,.66-3.228,5.636,5.636,0,0,1,2.04-2.436A6,6,0,0,1,82.7-12.96a5.571,5.571,0,0,1,4.272,1.692A6.924,6.924,0,0,1,88.56-6.36v1.032h-8.4v.192a2.35,2.35,0,0,0,.684,1.692,2.315,2.315,0,0,0,1.74.708,2.511,2.511,0,0,0,1.392-.372,2.028,2.028,0,0,0,.816-1h3.672A5.684,5.684,0,0,1,86.484-1,5.9,5.9,0,0,1,82.656.216Zm2.328-7.944a2.657,2.657,0,0,0-.66-1.92,2.312,2.312,0,0,0-1.692-.624,2.25,2.25,0,0,0-1.716.672,2.7,2.7,0,0,0-.66,1.872Zm-3.72-6.816,2.424-4.8H87.36L84.216-14.52ZM95.136-9.792V-4.7a6.542,6.542,0,0,0,.084,1.236.967.967,0,0,0,.48.636,2.584,2.584,0,0,0,1.284.24,4.767,4.767,0,0,0,.936-.1V-.1q-.24.048-.96.108t-1.44.06A5.436,5.436,0,0,1,92.748-.48a2.32,2.32,0,0,1-1.116-1.344,8.069,8.069,0,0,1-.216-2.064v-5.9h-2.04v-2.9h2.04v-4.1h3.72v4.1H97.92v2.9ZM111.264,0H107.5V-1.9h-.168a3.762,3.762,0,0,1-1.3,1.512,3.662,3.662,0,0,1-2.16.624,3.564,3.564,0,0,1-3.384-1.584,6.943,6.943,0,0,1-.912-3.528V-12.7h3.72v7.2a3.345,3.345,0,0,0,.5,1.932,1.763,1.763,0,0,0,1.56.732,1.823,1.823,0,0,0,1.62-.756A3.311,3.311,0,0,0,107.5-5.5v-7.2h3.768Zm6.24.216a4.212,4.212,0,0,1-3.636-1.788,8.046,8.046,0,0,1-1.284-4.788,8.081,8.081,0,0,1,1.284-4.824,4.246,4.246,0,0,1,3.66-1.776,3.86,3.86,0,0,1,2.484.708,4.2,4.2,0,0,1,1.212,1.428h.192v-7.2h3.768V0h-3.768V-2.04h-.192A4.859,4.859,0,0,1,119.952-.5,3.722,3.722,0,0,1,117.5.216ZM118.9-2.736a2.074,2.074,0,0,0,1.908-1.08,4.922,4.922,0,0,0,.636-2.544,4.817,4.817,0,0,0-.624-2.5,2.078,2.078,0,0,0-1.92-1.056,2.056,2.056,0,0,0-1.908,1.044,4.876,4.876,0,0,0-.612,2.508,5.075,5.075,0,0,0,.612,2.544A2.042,2.042,0,0,0,118.9-2.736Zm8.472-9.96h3.72V0h-3.72Zm1.848-2.112a1.933,1.933,0,0,1-1.44-.588,1.965,1.965,0,0,1-.576-1.428,1.994,1.994,0,0,1,.576-1.452,1.933,1.933,0,0,1,1.44-.588,1.973,1.973,0,0,1,1.452.588,1.973,1.973,0,0,1,.588,1.452,1.944,1.944,0,0,1-.588,1.428A1.973,1.973,0,0,1,129.216-14.808ZM137.736.216A4.212,4.212,0,0,1,134.1-1.572a8.046,8.046,0,0,1-1.284-4.788,7.928,7.928,0,0,1,1.32-4.812,4.283,4.283,0,0,1,3.648-1.788,3.808,3.808,0,0,1,2.472.708,4.242,4.242,0,0,1,1.2,1.428h.192V-12.7h3.768V0h-3.768V-2.04h-.192A4.622,4.622,0,0,1,140.22-.528,3.728,3.728,0,0,1,137.736.216Zm1.416-3a2.052,2.052,0,0,0,1.9-1.068,4.931,4.931,0,0,0,.624-2.532,4.882,4.882,0,0,0-.624-2.508,2.052,2.052,0,0,0-1.9-1.068,2.077,2.077,0,0,0-1.932,1.044,4.875,4.875,0,0,0-.612,2.508,5.058,5.058,0,0,0,.612,2.556A2.067,2.067,0,0,0,139.152-2.784ZM147.36-12.7H151.1v1.848h.192a3.6,3.6,0,0,1,1.332-1.5,3.973,3.973,0,0,1,2.244-.612,3.716,3.716,0,0,1,3.456,1.572,6.612,6.612,0,0,1,.96,3.516V0h-3.744V-7.224a3.16,3.16,0,0,0-.552-1.968,1.929,1.929,0,0,0-1.632-.72,1.97,1.97,0,0,0-1.7.756,3.193,3.193,0,0,0-.552,1.932V0H147.36Zm18.624,2.9V-4.7a6.542,6.542,0,0,0,.084,1.236.967.967,0,0,0,.48.636,2.584,2.584,0,0,0,1.284.24,4.767,4.767,0,0,0,.936-.1V-.1q-.24.048-.96.108t-1.44.06A5.436,5.436,0,0,1,163.6-.48a2.319,2.319,0,0,1-1.116-1.344,8.069,8.069,0,0,1-.216-2.064v-5.9h-2.04v-2.9h2.04v-4.1h3.72v4.1h2.784v2.9Z" transform="translate(-103 -687)" fill="#FFFAD2"/>
    <g id="Ellipse_11" data-name="Ellipse 11" transform="translate(-158 -714)" fill="none" stroke="#FFFAD2" stroke-width="7">
      <circle cx="20" cy="20" r="20" stroke="none"/>
      <circle cx="20" cy="20" r="16.5" fill="none"/>
    </g>
    <g id="Ellipse_12" data-name="Ellipse 12" transform="translate(-158 -714)" fill="none" stroke="#FFFAD2" stroke-width="7">
      <circle cx="20" cy="20" r="20" stroke="none"/>
      <circle cx="20" cy="20" r="16.5" fill="none"/>
    </g>
    <g id="Icon_material-location-on" data-name="Icon material-location-on" transform="translate(-155.5 -722)" fill="#FFFAD2">
      <path d="M 18 35.98379898071289 L 16.51579093933105 34.34056854248047 C 16.40475082397461 34.21762084960938 13.76535987854004 31.28392028808594 11.09206962585449 27.32172966003418 C 7.381440162658691 21.82205009460449 5.5 17.17174911499023 5.5 13.5 C 5.5 10.1582202911377 6.799429893493652 7.018400192260742 9.158909797668457 4.658909797668457 C 11.51840019226074 2.299429893493652 14.6582202911377 1 18 1 C 21.3417797088623 1 24.48159980773926 2.299429893493652 26.84108924865723 4.658909797668457 C 29.20056915283203 7.018400192260742 30.5 10.1582202911377 30.5 13.5 C 30.5 17.17174911499023 28.61856079101563 21.82205009460449 24.90793037414551 27.32172966003418 C 22.23464012145996 31.28392028808594 19.59524917602539 34.21762084960938 19.48420906066895 34.34056854248047 L 18 35.98379898071289 Z M 18 11.75 C 17.03504943847656 11.75 16.25 12.53505039215088 16.25 13.5 C 16.25 14.46494960784912 17.03504943847656 15.25 18 15.25 C 18.96495056152344 15.25 19.75 14.46494960784912 19.75 13.5 C 19.75 12.53505039215088 18.96495056152344 11.75 18 11.75 Z" stroke="none"/>
      <path d="M 18 3 C 12.19499969482422 3 7.5 7.694999694824219 7.5 13.5 C 7.5 21.375 18 33 18 33 C 18 33 28.5 21.375 28.5 13.5 C 28.5 7.694999694824219 23.80500030517578 3 18 3 M 18 17.25 C 15.93000030517578 17.25 14.25 15.56999969482422 14.25 13.5 C 14.25 11.43000030517578 15.93000030517578 9.75 18 9.75 C 20.06999969482422 9.75 21.75 11.43000030517578 21.75 13.5 C 21.75 15.56999969482422 20.06999969482422 17.25 18 17.25 M 18 -1 C 19.95675086975098 -1 21.85646057128906 -0.6165618896484375 23.6463508605957 0.1396598815917969 C 25.37434005737305 0.8697319030761719 26.92502021789551 1.914409637451172 28.25530052185059 3.244701385498047 C 29.58559036254883 4.574979782104492 30.63027000427246 6.125659942626953 31.3603401184082 7.853649139404297 C 32.11656188964844 9.643539428710938 32.5 11.54324913024902 32.5 13.5 C 32.5 15.8636302947998 31.83040046691895 18.55673980712891 30.50979042053223 21.50452995300293 C 29.54512977600098 23.65777969360352 28.21820068359375 25.99131965637207 26.56586074829102 28.44033050537109 C 23.81444931030273 32.518310546875 21.08333015441895 35.55392074584961 20.96841049194336 35.68114852905273 L 18 38.96760177612305 L 15.03158950805664 35.68114852905273 C 14.91666984558105 35.55392074584961 12.18555068969727 32.518310546875 9.434139251708984 28.44033050537109 C 7.78179931640625 25.99131965637207 6.454870223999023 23.65777969360352 5.490209579467773 21.50452995300293 C 4.169599533081055 18.55673980712891 3.5 15.8636302947998 3.5 13.5 C 3.5 11.54324913024902 3.883438110351563 9.643539428710938 4.639659881591797 7.853649139404297 C 5.369729995727539 6.125659942626953 6.414409637451172 4.574979782104492 7.744699478149414 3.244701385498047 C 9.074979782104492 1.914409637451172 10.62565994262695 0.8697319030761719 12.3536491394043 0.1396598815917969 C 14.14353942871094 -0.6165618896484375 16.04324913024902 -1 18 -1 Z" stroke="none" fill="#473041"/>
    </g>
  </g>
</svg>
