<svg xmlns="http://www.w3.org/2000/svg" width="32.5" height="32.5" viewBox="0 0 32.5 32.5">
  <path id="Icon_awesome-plus" data-name="Icon awesome-plus" d="M30.179,15.018H19.732V4.571A2.322,2.322,0,0,0,17.411,2.25H15.089a2.322,2.322,0,0,0-2.321,2.321V15.018H2.321A2.322,2.322,0,0,0,0,17.339v2.321a2.322,2.322,0,0,0,2.321,2.321H12.768V32.429a2.322,2.322,0,0,0,2.321,2.321h2.321a2.322,2.322,0,0,0,2.321-2.321V21.982H30.179A2.322,2.322,0,0,0,32.5,19.661V17.339A2.322,2.322,0,0,0,30.179,15.018Z" transform="translate(0 -2.25)" fill="#975bb9"/>
</svg>
