<svg xmlns="http://www.w3.org/2000/svg" xmlns:xlink="http://www.w3.org/1999/xlink" width="123.468" height="29.852" viewBox="0 0 123.468 29.852">
  <defs>
    <clipPath id="clip-path">
      <path id="Union_1" data-name="Union 1" d="M13.86,29.852a2.133,2.133,0,0,1-2.133-2.132V18.125H2.132A2.133,2.133,0,0,1,0,15.992V13.86a2.133,2.133,0,0,1,2.132-2.132h9.595v-9.6A2.133,2.133,0,0,1,13.86,0h2.132a2.133,2.133,0,0,1,2.132,2.132v9.6h9.6a2.133,2.133,0,0,1,2.132,2.132v2.132a2.133,2.133,0,0,1-2.132,2.133h-9.6V27.72a2.133,2.133,0,0,1-2.132,2.132ZM98.184,25.23a7.448,7.448,0,0,1-2.732-3.247,11.007,11.007,0,0,1,0-8.647,7.551,7.551,0,0,1,2.732-3.263A8.034,8.034,0,0,1,102.8,8.818a7.461,7.461,0,0,1,5.722,2.266q2.122,2.267,2.122,6.575v1.382H99.389V19.3a3.147,3.147,0,0,0,.917,2.266,3.1,3.1,0,0,0,2.33.949,3.363,3.363,0,0,0,1.865-.5,2.718,2.718,0,0,0,1.093-1.334h4.919a7.617,7.617,0,0,1-2.652,4.163,7.9,7.9,0,0,1-5.128,1.623A7.991,7.991,0,0,1,98.184,25.23ZM100.4,13.319a3.614,3.614,0,0,0-.885,2.507h6.333a3.561,3.561,0,0,0-.884-2.572,3.1,3.1,0,0,0-2.266-.835A3.013,3.013,0,0,0,100.4,13.319ZM80.695,25.23a7.448,7.448,0,0,1-2.732-3.247,11.007,11.007,0,0,1,0-8.647,7.551,7.551,0,0,1,2.732-3.263,8.034,8.034,0,0,1,4.613-1.254,7.461,7.461,0,0,1,5.722,2.266q2.122,2.267,2.122,6.575v1.382H81.9V19.3a3.147,3.147,0,0,0,.917,2.266,3.1,3.1,0,0,0,2.33.949,3.363,3.363,0,0,0,1.865-.5,2.718,2.718,0,0,0,1.093-1.334h4.919a7.617,7.617,0,0,1-2.652,4.163,7.9,7.9,0,0,1-5.128,1.623A7.991,7.991,0,0,1,80.695,25.23Zm2.218-11.911a3.614,3.614,0,0,0-.885,2.507h6.333a3.561,3.561,0,0,0-.884-2.572,3.1,3.1,0,0,0-2.266-.835A3.013,3.013,0,0,0,82.913,13.319ZM48.675,24.876a10.053,10.053,0,0,1-3.536-4.26,13.885,13.885,0,0,1-1.206-5.786,13.779,13.779,0,0,1,1.206-5.771,10.072,10.072,0,0,1,3.536-4.244,9.652,9.652,0,0,1,5.578-1.591,9.155,9.155,0,0,1,6.462,2.314,10.8,10.8,0,0,1,3.246,5.98H59.108a5.21,5.21,0,0,0-1.656-2.8A4.555,4.555,0,0,0,54.317,7.6a4.314,4.314,0,0,0-3.874,2.009,9.454,9.454,0,0,0-1.3,5.224,9.5,9.5,0,0,0,1.3,5.272A4.324,4.324,0,0,0,54.317,22.1,4.469,4.469,0,0,0,57.388,21a5.313,5.313,0,0,0,1.655-2.6h4.791a10.358,10.358,0,0,1-3.2,5.8,9.116,9.116,0,0,1-6.381,2.266A9.652,9.652,0,0,1,48.675,24.876Zm64.024,1.3V9.172h4.982v2.7h.257a3.836,3.836,0,0,1,1.527-1.913,5.135,5.135,0,0,1,2.974-.788,5.269,5.269,0,0,1,1.029.1l-.225,4.6a5.192,5.192,0,0,0-1.7-.257,3.754,3.754,0,0,0-2.941,1.029,5.085,5.085,0,0,0-.917,3.408v8.133Zm-46.777,0V9.172h4.983v2.7h.257A3.831,3.831,0,0,1,72.69,9.959a5.133,5.133,0,0,1,2.974-.788,5.269,5.269,0,0,1,1.029.1l-.225,4.6a5.192,5.192,0,0,0-1.7-.257,3.756,3.756,0,0,0-2.942,1.029,5.085,5.085,0,0,0-.916,3.408v8.133ZM83.38,6.7,86.626.266h4.919L87.333,6.728Z" transform="translate(0 0)" fill="#473041" stroke="rgba(0,0,0,0)" stroke-width="1"/>
    </clipPath>
    <linearGradient id="linear-gradient" x1="1.021" x2="-0.096" y2="1.199" gradientUnits="objectBoundingBox">
      <stop offset="0" stop-color="#fe6666"/>
      <stop offset="1" stop-color="#e94bcf"/>
    </linearGradient>
  </defs>
  <g id="Groupe_de_masques_1" data-name="Groupe de masques 1" transform="translate(0 0)" clip-path="url(#clip-path)">
    <rect id="Rectangle_17" data-name="Rectangle 17" width="134" height="44" transform="translate(-5.472 -6.777)" fill="url(#linear-gradient)"/>
  </g>
</svg>
